<svg width="24" height="24" viewBox="0 0 24 24" fill="none" xmlns="http://www.w3.org/2000/svg">
<g id="Instagram" clip-path="url(#clip0_19_565)">
<g id="Layer 2">
<g id="Layer 1">
<path id="Vector" d="M18.6131 0H5.38691C2.4118 0 0 2.4118 0 5.38691V18.6131C0 21.5882 2.4118 24 5.38691 24H18.6131C21.5882 24 24 21.5882 24 18.6131V5.38691C24 2.4118 21.5882 0 18.6131 0Z" fill="url(#paint0_linear_19_565)"/>
<g id="&#60;Group&#62;">
<path id="&#60;Compound Path&#62;" d="M8.31315 4.15656H15.795C15.9612 4.23969 16.2106 4.23969 16.3769 4.32282C17.1065 4.44106 17.7886 4.76044 18.3467 5.24506C18.9047 5.72968 19.3165 6.36034 19.5359 7.06615C19.6586 7.47289 19.7422 7.89045 19.7853 8.31312V15.6287C19.6664 16.5558 19.3241 17.4402 18.7877 18.2057C18.3275 18.7389 17.7506 19.1587 17.1018 19.4327C16.453 19.7066 15.7498 19.8273 15.0468 19.7852H8.81194C7.69927 19.8392 6.60526 19.4844 5.73608 18.7877C5.20753 18.331 4.79043 17.7595 4.51667 17.1169C4.2429 16.4743 4.11974 15.7775 4.15659 15.08V9.26082C4.14285 8.84343 4.1707 8.42571 4.23972 8.01385C4.32366 7.16157 4.67409 6.35744 5.24119 5.71572C5.8083 5.07399 6.56323 4.62733 7.39871 4.4392L8.31315 4.15656ZM5.73608 12.054V15.2961C5.70064 15.709 5.75587 16.1246 5.89791 16.5139C6.03995 16.9032 6.26537 17.2567 6.55838 17.5497C6.85139 17.8427 7.20491 18.0681 7.59419 18.2102C7.98346 18.3522 8.39908 18.4074 8.81194 18.372C10.9734 18.4551 13.1348 18.4551 15.2962 18.372C17.2082 18.372 18.2889 17.2082 18.372 15.2961C18.4552 13.1347 18.4552 10.9733 18.372 8.81191C18.3936 8.40231 18.3288 7.99275 18.1818 7.60982C18.0349 7.22688 17.809 6.87911 17.519 6.58908C17.229 6.29905 16.8812 6.07323 16.4983 5.92628C16.1153 5.77932 15.7058 5.71451 15.2962 5.73605C13.1348 5.65292 10.9734 5.65292 8.81194 5.73605C8.39908 5.70061 7.98346 5.75584 7.59419 5.89788C7.20491 6.03992 6.85139 6.26534 6.55838 6.55835C6.26537 6.85136 6.03995 7.20488 5.89791 7.59415C5.75587 7.98343 5.70064 8.39905 5.73608 8.81191V12.054Z" fill="white"/>
<path id="&#60;Compound Path&#62;_2" d="M8.01385 12.0873C8.01605 11.0076 8.44592 9.9728 9.20936 9.20936C9.9728 8.44592 11.0076 8.01605 12.0873 8.01385C13.161 8.03512 14.1848 8.47111 14.9441 9.23047C15.7035 9.98982 16.1395 11.0136 16.1607 12.0873C16.1585 13.167 15.7287 14.2018 14.9652 14.9652C14.2018 15.7287 13.167 16.1585 12.0873 16.1607C11.0136 16.1395 9.98982 15.7035 9.23047 14.9441C8.47111 14.1848 8.03512 13.161 8.01385 12.0873ZM12.0873 9.51022C11.5824 9.50201 11.0865 9.64475 10.6632 9.92017C10.24 10.1956 9.90856 10.5911 9.71152 11.0561C9.51449 11.521 9.46078 12.0342 9.55728 12.5299C9.65378 13.0256 9.8961 13.4812 10.2532 13.8383C10.6103 14.1953 11.0658 14.4377 11.5615 14.5342C12.0572 14.6307 12.5704 14.577 13.0354 14.3799C13.5003 14.1829 13.8959 13.8515 14.1713 13.4282C14.4467 13.0049 14.5894 12.5091 14.5812 12.0042C14.5812 11.3427 14.3185 10.7084 13.8508 10.2407C13.3831 9.77297 12.7487 9.51022 12.0873 9.51022Z" fill="white"/>
<path id="&#60;Path&#62;" d="M15.2463 7.8476C15.2417 7.71534 15.2643 7.58355 15.3128 7.46041C15.3613 7.33728 15.4346 7.22545 15.5282 7.13187C15.6217 7.03829 15.7336 6.96498 15.8567 6.91649C15.9798 6.868 16.1116 6.84538 16.2439 6.85002C16.5027 6.86753 16.7464 6.97825 16.9298 7.16167C17.1132 7.3451 17.224 7.58879 17.2415 7.8476C17.2415 8.11217 17.1364 8.36591 16.9493 8.55299C16.7622 8.74007 16.5085 8.84517 16.2439 8.84517C15.9793 8.84517 15.7256 8.74007 15.5385 8.55299C15.3514 8.36591 15.2463 8.11217 15.2463 7.8476Z" fill="white"/>
</g>
</g>
</g>
</g>
<defs>
<linearGradient id="paint0_linear_19_565" x1="-1.52962" y1="25.3301" x2="26.735" y2="-2.51888" gradientUnits="userSpaceOnUse">
<stop stop-color="#FED576"/>
<stop offset="0.26" stop-color="#F47133"/>
<stop offset="0.61" stop-color="#BC3081"/>
<stop offset="1" stop-color="#4C63D2"/>
</linearGradient>
<clipPath id="clip0_19_565">
<rect width="24" height="24" fill="white"/>
</clipPath>
</defs>
</svg>
