<svg width="112" height="130" viewBox="0 0 112 130" fill="none" xmlns="http://www.w3.org/2000/svg">
<path id="Oval" fill-rule="evenodd" clip-rule="evenodd" d="M46.9867 0C44.3886 0 42.2824 2.1088 42.2824 4.71014C42.2824 7.31149 44.3886 9.42029 46.9867 9.42029C77.645 9.42029 102.498 34.3042 102.498 65C102.498 95.6958 77.645 120.58 46.9867 120.58C32.3508 120.58 18.6225 114.89 8.32918 104.888C6.46475 103.076 3.48643 103.121 1.67692 104.987C-0.132588 106.854 -0.0880625 109.836 1.77637 111.648C13.8082 123.339 29.8793 130 46.9867 130C82.8413 130 111.907 100.899 111.907 65C111.907 29.1015 82.8413 0 46.9867 0Z" fill="#39C675"/>
</svg>
