<svg width="24" height="24" viewBox="0 0 24 24" fill="none" xmlns="http://www.w3.org/2000/svg">
<g id="socialmedia advertising digitalmarketing branding facebook twitter 21">
<g id="Group">
<path id="Vector" d="M4.21048 10.6883C5.40218 10.6883 6.36823 9.72221 6.36823 8.53052C6.36823 7.33883 5.40218 6.3728 4.21048 6.3728C3.01879 6.3728 2.05273 7.33883 2.05273 8.53052C2.05273 9.72221 3.01879 10.6883 4.21048 10.6883Z" fill="#00D1B6" stroke="#373449"/>
<path id="Vector_2" d="M15.4666 6.19048C16.6583 6.19048 17.6243 5.22445 17.6243 4.03276C17.6243 2.84107 16.6583 1.875 15.4666 1.875C14.2749 1.875 13.3088 2.84107 13.3088 4.03276C13.3088 5.22445 14.2749 6.19048 15.4666 6.19048Z" fill="#00D1B6" stroke="#373449"/>
<path id="Vector_3" d="M13.8893 10.3807H13.8885C13.4664 10.3807 13.1243 10.7229 13.1243 11.145V19.7122C13.1243 20.1343 13.4664 20.4764 13.8885 20.4764H13.8893C14.3114 20.4764 14.6535 20.1343 14.6535 19.7122V11.145C14.6535 10.7229 14.3114 10.3807 13.8893 10.3807Z" stroke="#373449"/>
<path id="Vector_4" d="M13.1286 11.3273C11.9114 12.5468 10.4519 12.7485 8.5529 12.8318H5.8364C5.1389 12.8318 4.57715 13.1521 4.57715 13.8518V17.0063C4.57715 17.706 5.13965 17.9663 5.83715 17.9663H8.5139C9.81215 17.9881 11.9151 18.315 13.1286 19.5308V11.3273Z" fill="#FF5A67" stroke="#373449" stroke-linecap="round" stroke-linejoin="round"/>
<path id="Vector_5" d="M14.6489 13.536C15.1499 13.5362 15.6302 13.7357 15.9843 14.0907C16.3385 14.4457 16.5374 14.927 16.5374 15.429C16.5374 15.9309 16.3385 16.4123 15.9843 16.7673C15.6302 17.1223 15.1499 17.3218 14.6489 17.322V15.429V13.536Z" fill="#00D1B6" stroke="#373449" stroke-linecap="round" stroke-linejoin="round"/>
<path id="Vector_6" d="M17.0481 13.536L18.9374 12.2738M17.6774 15.429H20.0001M17.0481 17.322L18.9374 18.5843M8.35561 12.8655V17.8343M5.98486 17.9708H7.49536L7.50661 21.978H6.00061L5.98486 17.9708Z" stroke="#373449" stroke-linecap="round" stroke-linejoin="round"/>
<path id="Vector_7" d="M8.75028 6.2144C9.94197 6.2144 10.908 5.24838 10.908 4.05669C10.908 2.86499 9.94197 1.89893 8.75028 1.89893C7.55859 1.89893 6.59253 2.86499 6.59253 4.05669C6.59253 5.24838 7.55859 6.2144 8.75028 6.2144Z" fill="#FF5A67" stroke="#373449"/>
<path id="Vector_8" d="M19.7896 10.7115C20.9813 10.7115 21.9473 9.7454 21.9473 8.55371C21.9473 7.36202 20.9813 6.396 19.7896 6.396C18.5979 6.396 17.6318 7.36202 17.6318 8.55371C17.6318 9.7454 18.5979 10.7115 19.7896 10.7115Z" fill="#FF5A67" stroke="#373449"/>
<path id="Vector_9" d="M4.76913 7.77969C4.70913 7.75619 4.65188 7.74445 4.59738 7.74445C4.44888 7.74445 4.37463 7.82496 4.37463 7.98596V8.14572H4.71738V8.48694H4.37463V9.64572H3.91338V8.48694H3.66138V8.14572H3.91338V7.95969C3.91338 7.78919 3.96913 7.65174 4.08063 7.54724C4.19163 7.44224 4.34288 7.38968 4.53438 7.38968C4.62838 7.38968 4.70663 7.39971 4.76913 7.41971V7.77969ZM15.9869 4.97168C15.9184 5.00768 15.8154 5.0257 15.6779 5.0257C15.3519 5.0257 15.1889 4.85621 15.1889 4.51721V3.8302H14.9451V3.48898H15.1889V3.16498L15.6501 3.03369V3.48898H15.9876V3.8302H15.6501V4.43692C15.6501 4.59292 15.7121 4.67093 15.8361 4.67093C15.8851 4.67093 15.9354 4.65667 15.9869 4.62817V4.97168Z" fill="#373449"/>
<path id="Vector_10" d="M19.6341 8.75177C19.6341 8.96427 19.5726 9.12874 19.4496 9.24524C19.3266 9.36224 19.1484 9.42075 18.9149 9.42075C18.7604 9.42075 18.6381 9.39874 18.5481 9.35474V9.05701C18.6661 9.12551 18.7851 9.15973 18.9051 9.15973C19.0241 9.15973 19.1166 9.12825 19.1826 9.06525C19.2476 9.00225 19.2801 8.91681 19.2801 8.80881V8.71881H19.2764C19.1959 8.84681 19.0769 8.9108 18.9194 8.9108C18.7734 8.9108 18.6574 8.85926 18.5714 8.75626C18.4859 8.65326 18.4431 8.51525 18.4431 8.34225C18.4431 8.14875 18.4906 7.99478 18.5856 7.88028C18.6816 7.76628 18.8074 7.70926 18.9629 7.70926C19.1029 7.70926 19.2074 7.76298 19.2764 7.87048H19.2809V7.73773H19.6341V8.75177ZM19.2854 8.33255V8.24255C19.2854 8.17005 19.2636 8.10825 19.2201 8.05725C19.1776 8.00575 19.1221 7.97998 19.0536 7.97998C18.9751 7.97998 18.9136 8.01077 18.8691 8.07227C18.8241 8.13327 18.8016 8.21926 18.8016 8.33026C18.8016 8.42526 18.8229 8.501 18.8654 8.5575C18.9079 8.6125 18.9661 8.63998 19.0401 8.63998C19.1131 8.63998 19.1721 8.61203 19.2171 8.55603C19.2621 8.49953 19.2846 8.42505 19.2846 8.33255H19.2854ZM21.1364 8.34006H20.7059V8.77127H20.4794V8.34006H20.0466V8.11356H20.4794V7.68079H20.7059V8.11356H21.1364V8.34006Z" fill="#373449"/>
<path id="Vector_11" d="M8.53432 5.06848H7.98682V3.84973C7.98682 3.62623 8.04532 3.44398 8.16232 3.30298C8.22982 3.22198 8.31532 3.15776 8.41882 3.11026C8.52332 3.06226 8.63007 3.03821 8.73907 3.03821C8.95707 3.03821 9.14082 3.11153 9.29032 3.25803C9.43982 3.40403 9.51457 3.58345 9.51457 3.79645C9.51457 4.00345 9.44032 4.18226 9.29182 4.33276C9.14332 4.48276 8.96757 4.55771 8.76457 4.55771C8.73107 4.55771 8.68207 4.5545 8.61757 4.548V3.94421C8.66257 3.98021 8.70757 3.99823 8.75257 3.99823C8.80907 3.99823 8.85732 3.97724 8.89732 3.93524C8.93832 3.89324 8.95882 3.84328 8.95882 3.78528C8.95882 3.72828 8.93782 3.67971 8.89582 3.63971C8.85382 3.59871 8.80382 3.57828 8.74582 3.57828C8.60482 3.57828 8.53432 3.67523 8.53432 3.86923V5.06848Z" fill="#373449"/>
</g>
</g>
</svg>
