<svg width="24" height="24" viewBox="0 0 24 24" fill="none" xmlns="http://www.w3.org/2000/svg">
<g id="Whatsapp" clip-path="url(#clip0_19_591)">
<path id="Vector" d="M23.9988 17.9333C23.9988 18.0647 23.9948 18.3497 23.9869 18.5698C23.9676 19.1085 23.9249 19.8036 23.8603 20.1203C23.7632 20.5962 23.6167 21.0454 23.4257 21.4193C23.1997 21.8616 22.9114 22.2578 22.5689 22.5997C22.227 22.9409 21.8312 23.2281 21.3896 23.4532C21.0138 23.6447 20.5617 23.7913 20.0831 23.8879C19.7696 23.9512 19.0797 23.9931 18.5445 24.0121C18.3241 24.02 18.0391 24.024 17.9081 24.024L6.09035 24.0221C5.95894 24.0221 5.67398 24.0181 5.45384 24.0102C4.91517 23.9908 4.22011 23.9481 3.9034 23.8836C3.42748 23.7865 2.97825 23.64 2.60437 23.449C2.16206 23.223 1.7659 22.9347 1.42397 22.5921C1.08272 22.2503 0.795562 21.8545 0.570492 21.4129C0.378914 21.037 0.232335 20.585 0.135703 20.1064C0.0724214 19.7929 0.0305386 19.103 0.0114839 18.5678C0.00365576 18.3474 -0.000305176 18.0624 -0.000305176 17.9315L0.00156982 6.11363C0.00156982 5.98221 0.00557764 5.69724 0.0134761 5.47709C0.032812 4.93843 0.0754917 4.24336 0.140062 3.92668C0.237117 3.45075 0.383601 3.00153 0.57464 2.62763C0.800648 2.18534 1.08895 1.78915 1.43149 1.44722C1.7733 1.106 2.16912 0.818816 2.61075 0.593723C2.98662 0.402191 3.43866 0.255613 3.91727 0.15898C4.2308 0.0956758 4.92068 0.053793 5.4559 0.0347617C5.67626 0.0269102 5.96133 0.0229492 6.0922 0.0229492L17.91 0.0248477C18.0415 0.0248477 18.3264 0.0288555 18.5466 0.0367539C19.0852 0.0560898 19.7803 0.0987695 20.097 0.16334C20.5729 0.260395 21.0221 0.406879 21.396 0.597918C21.8383 0.823926 22.2345 1.11223 22.5764 1.45477C22.9176 1.79658 23.2048 2.19237 23.4299 2.63403C23.6215 3.00989 23.768 3.46191 23.8647 3.94053C23.928 4.25407 23.9698 4.94393 23.9889 5.47918C23.9967 5.69953 24.0007 5.98458 24.0007 6.1155L23.9988 17.9333Z" fill="url(#paint0_linear_19_591)"/>
<g id="Group">
<path id="Vector_2" d="M18.3586 5.70109C16.7337 4.07483 14.5728 3.17877 12.2704 3.17786C7.52662 3.17786 3.66574 7.03726 3.66384 11.7811C3.66323 13.2975 4.05953 14.7777 4.81267 16.0824L3.59167 20.5409L8.15414 19.3445C9.41123 20.0299 10.8265 20.3911 12.267 20.3917H12.2705C17.0139 20.3917 20.8751 16.5318 20.877 11.788C20.8779 9.48904 19.9836 7.32735 18.3586 5.70109ZM12.2705 18.9386H12.2676C10.984 18.9381 9.72503 18.5934 8.62673 17.9418L8.36549 17.7869L5.65807 18.4969L6.38074 15.858L6.2106 15.5874C5.49454 14.4489 5.11635 13.1328 5.11692 11.7817C5.11846 7.8388 8.3275 4.63098 12.2733 4.63098C14.1839 4.63171 15.98 5.37655 17.3306 6.72822C18.6812 8.07988 19.4246 9.87662 19.4239 11.7874C19.4223 15.7306 16.2133 18.9386 12.2705 18.9386ZM16.1943 13.5828C15.9792 13.4752 14.922 12.9551 14.7249 12.8833C14.5278 12.8116 14.3844 12.7757 14.241 12.991C14.0977 13.2062 13.6856 13.6904 13.5601 13.8339C13.4346 13.9774 13.3092 13.9953 13.0942 13.8877C12.8791 13.7801 12.1862 13.5531 11.3648 12.8207C10.7255 12.2507 10.2939 11.5466 10.1685 11.3314C10.043 11.1162 10.1551 10.9998 10.2628 10.8926C10.3595 10.7963 10.4778 10.6416 10.5854 10.516C10.6929 10.3905 10.7287 10.3008 10.8004 10.1573C10.8721 10.0138 10.8362 9.88829 10.7825 9.78069C10.7287 9.67309 10.2986 8.61493 10.1194 8.1845C9.94488 7.7653 9.76755 7.82202 9.63555 7.81543C9.51025 7.8092 9.36674 7.80789 9.2234 7.80789C9.08006 7.80789 8.84707 7.86168 8.64996 8.0769C8.45285 8.29213 7.89731 8.81223 7.89731 9.87036C7.89731 10.9285 8.66786 11.9508 8.77539 12.0942C8.88292 12.2377 10.2918 14.4092 12.449 15.3404C12.9621 15.5619 13.3627 15.6941 13.675 15.7932C14.1901 15.9568 14.6589 15.9337 15.0295 15.8784C15.4427 15.8167 16.3018 15.3583 16.481 14.8562C16.6602 14.354 16.6602 13.9236 16.6065 13.8339C16.5527 13.7442 16.4094 13.6904 16.1943 13.5828Z" fill="white"/>
</g>
</g>
<defs>
<linearGradient id="paint0_linear_19_591" x1="12.0002" y1="0.0229492" x2="12.0002" y2="24.024" gradientUnits="userSpaceOnUse">
<stop stop-color="#61FD7D"/>
<stop offset="1" stop-color="#2BB826"/>
</linearGradient>
<clipPath id="clip0_19_591">
<rect width="24" height="24" fill="white"/>
</clipPath>
</defs>
</svg>
